PathFileType	4	(X/Y/Z)	/Users/itak/Documents/Research/Walk-IL/dataset/trc/00014_00004.trc
DataRate	CameraRate	NumFrames	NumMarkers	Units	OrigDataRate	OrigDataStartFrame	OrigNumFrames
100.000000	100.000000	4	56	mm	100.000000	272	544
Frame#	Time	LMT1			RPSI			LPSI			L3			STRN			T10			C7			CLAV			RBAK			LBAK			LSHO			LUPA			LAEL			LAOL			LWTS			LWPS			LFRA			LIFD			LHPS			RSHO			RUPA			RAEL			RAOL			RWTS			RWPS			RFRA			RIFD			RHTS			RHPS			RBHD			LFHD			RFHD			LBHD			LHIP			RHIP			RASI			LASI			LKNE			LTHI			LANK			LTIP			LTOE			LMT5			LHEE			RKNE			RANK			RTIP			RTOE			RMT1			RMT5			RHEE			LHTS			RTHI			*53			*54			*55			
		X1	Y1	Z1	X2	Y2	Z2	X3	Y3	Z3	X4	Y4	Z4	X5	Y5	Z5	X6	Y6	Z6	X7	Y7	Z7	X8	Y8	Z8	X9	Y9	Z9	X10	Y10	Z10	X11	Y11	Z11	X12	Y12	Z12	X13	Y13	Z13	X14	Y14	Z14	X15	Y15	Z15	X16	Y16	Z16	X17	Y17	Z17	X18	Y18	Z18	X19	Y19	Z19	X20	Y20	Z20	X21	Y21	Z21	X22	Y22	Z22	X23	Y23	Z23	X24	Y24	Z24	X25	Y25	Z25	X26	Y26	Z26	X27	Y27	Z27	X28	Y28	Z28	X29	Y29	Z29	X30	Y30	Z30	X31	Y31	Z31	X32	Y32	Z32	X33	Y33	Z33	X34	Y34	Z34	X35	Y35	Z35	X36	Y36	Z36	X37	Y37	Z37	X38	Y38	Z38	X39	Y39	Z39	X40	Y40	Z40	X41	Y41	Z41	X42	Y42	Z42	X43	Y43	Z43	X44	Y44	Z44	X45	Y45	Z45	X46	Y46	Z46	X47	Y47	Z47	X48	Y48	Z48	X49	Y49	Z49	X50	Y50	Z50	X51	Y51	Z51	X52	Y52	Z52	X53	Y53	Z53	X54	Y54	Z54	X55	Y55	Z55	X56	Y56	Z56	

273	2.72	548.9727172851562	91.83989715576172	-369.1188049316406	50.47755813598633	1047.387817382812	-175.3888244628906	46.853759765625	1038.129760742188	-337.6683044433594	48.68191146850586	1110.1484375	-262.4468078613281	289.8119201660156	1290.672607421875	-268.1866760253906	44.02506637573242	1254.625244140625	-253.3367767333984	99.01398468017578	1519.81201171875	-267.6978149414062	254.8179931640625	1419.168823242188	-272.3739929199219	49.26750183105469	1385.6943359375	-181.7567596435547	75.79203033447266	1478.352172851562	-364.3236999511719	175.3101348876953	1478.838012695312	-444.2368469238281	134.3483123779297	1355.87109375	-518.43359375	123.3289794921875	1139.416870117188	-548.4105224609375	73.12055206298828	1126.159912109375	-456.0789184570312	227.8066711425781	893.4393920898438	-495.412109375	150.3172912597656	873.2523193359375	-533.8707275390625	140.5368499755859	1023.666809082031	-554.8340454101562	270.351806640625	711.9577026367188	-480.1339111328125	190.4268035888672	787.022705078125	-535.0525512695312	190.9983520507812	1501.846313476562	-98.23870849609375	190.3203430175781	1426.625610351562	-26.251220703125	208.4858551025391	1152.754028320312	-5.933887481689453	181.6359558105469	1125.65087890625	-98.58668518066406	382.0383605957031	937.872802734375	-99.36495971679688	346.1229553222656	903.2618408203125	-22.41781997680664	242.6418609619141	1080.213256835938	-1.878088116645813	449.8388671875	766.4638671875	-137.2265167236328	447.5241088867188	843.1729736328125	-106.6227798461914	410.5421752929688	820.0787353515625	-45.47800445556641	156.7079772949219	1689.955200195312	-192.5802459716797	327.8186340332031	1714.686767578125	-314.6869506835938	328.0410766601562	1714.058837890625	-215.7581329345703	147.025634765625	1694.2529296875	-336.8138122558594	143.4047698974609	939.7203369140625	-446.0406494140625	161.0791168212891	939.3235473632812	-72.72640228271484	264.8968200683594	965.3947143554688	-145.5286712646484	257.4486389160156	983.4296875	-380.7825622558594	339.7421264648438	539.9503784179688	-418.4827270507812	258.9402160644531	652.8495483398438	-452.7756652832031	391.6346435546875	48.48046875	-444.6696472167969	336.8630065917969	291.4941711425781	-447.6139221191406	606.7318725585938	101.0309066772461	-389.8222351074219	510.5451965332031	82.33883666992188	-468.0691528320312	326.1978759765625	33.9157829284668	-388.8873596191406	143.3911285400391	500.1893920898438	-121.7621841430664	-86.62843322753906	53.76455307006836	-172.0677337646484	94.35932159423828	378.1343078613281	-128.4266204833984	142.6908264160156	41.80871963500977	-213.32861328125	79.78046417236328	48.10302734375	-243.8586730957031	61.53852462768555	36.47880935668945	-146.8424682617188	-143.3998107910156	67.56021881103516	-215.6059722900391	256.1672058105469	802.9428100585938	-511.3069763183594	173.0704040527344	770.7459106445312	-77.10670471191406	nan	nan	nan	nan	nan	nan	nan	nan	nan	
274	2.73	534.807373046875	90.14786529541016	-366.6455688476562	43.35078048706055	1048.49072265625	-173.1374969482422	39.32594680786133	1039.625244140625	-335.4306640625	41.31232833862305	1111.3798828125	-260.2230529785156	282.5828552246094	1292.005493164062	-266.2586059570312	36.61879730224609	1256.117309570312	-251.6522064208984	91.93527984619141	1521.25244140625	-266.1002197265625	247.6649780273438	1420.529296875	-270.4543151855469	41.94819259643555	1387.188354492188	-180.2483978271484	68.81487274169922	1479.795043945312	-362.7702331542969	168.4808654785156	1480.27978515625	-442.4715270996094	128.0478057861328	1357.265991210938	-516.87939453125	118.4704132080078	1140.65673828125	-546.8740844726562	67.73406982421875	1127.041625976562	-454.8831176757812	226.1416931152344	896.4812622070312	-492.5316162109375	149.330810546875	874.9655151367188	-531.66455078125	137.2894897460938	1025.180908203125	-552.988525390625	271.6603088378906	715.8660278320312	-476.6097412109375	190.8846130371094	789.4166259765625	-532.33642578125	183.5644989013672	1503.226684570312	-96.45328521728516	182.3303527832031	1428.067504882812	-24.44746208190918	198.1247863769531	1154.249877929688	-3.522850513458252	171.8228912353516	1127.20751953125	-96.25110626220703	368.994384765625	936.2689819335938	-94.61357879638672	331.9747314453125	902.7147216796875	-17.74600410461426	231.2902679443359	1081.398803710938	1.064662337303162	434.1761474609375	763.5153198242188	-130.9665374755859	432.8800964355469	840.4189453125	-100.8613586425781	395.1108703613281	818.3421020507812	-39.85439300537109	150.0040893554688	1691.3818359375	-190.6028137207031	321.1535034179688	1715.781005859375	-312.6850891113281	321.3965148925781	1715.02734375	-213.7688903808594	140.3335876464844	1695.869506835938	-334.8346557617188	135.6983337402344	941.45751953125	-444.3943786621094	154.2744750976562	940.0578002929688	-71.0338134765625	257.839599609375	966.435791015625	-144.0333099365234	249.790283203125	984.9627075195312	-379.2446899414062	333.2875366210938	541.27490234375	-417.2564697265625	252.0771942138672	654.5588989257812	-451.7222595214844	377.059814453125	48.57045745849609	-442.0682067871094	326.634033203125	292.4690551757812	-445.8620910644531	592.588134765625	98.44564056396484	-387.3895263671875	496.4205322265625	80.48189544677734	-465.5357666015625	311.4589233398438	35.27144241333008	-386.2230529785156	137.8672637939453	501.0871887207031	-121.7846603393555	-86.92826843261719	52.57273864746094	-172.5718688964844	89.92633056640625	378.8520202636719	-128.5682525634766	142.6116027832031	41.8342399597168	-213.3373413085938	79.67825317382812	47.89338302612305	-244.0694122314453	61.32245254516602	36.43059921264648	-146.9618225097656	-143.7660064697266	65.68628692626953	-216.2880401611328	256.2255859375	806.5567016601562	-508.0806274414062	166.8943786621094	771.4764404296875	-76.07147216796875	nan	nan	nan	nan	nan	nan	nan	nan	nan	
275	2.74	519.4619140625	88.05000305175781	-363.8701782226562	36.38832855224609	1049.609497070312	-170.9623718261719	31.95058059692383	1041.157348632812	-333.2674560546875	34.07037734985352	1112.652954101562	-258.0616760253906	275.4639282226562	1293.415649414062	-264.4226684570312	29.30341529846191	1257.639770507812	-250.0111999511719	84.90838623046875	1522.72998046875	-264.56298828125	240.5860748291016	1421.9619140625	-268.6216735839844	34.70782470703125	1388.711669921875	-178.7946319580078	61.87862014770508	1481.27001953125	-361.2735900878906	161.6758728027344	1481.781127929688	-440.7799072265625	121.782112121582	1358.72900390625	-515.4065551757812	113.6816864013672	1141.9658203125	-545.4196166992188	62.39248657226562	1127.994995117188	-453.789306640625	224.5165557861328	899.665771484375	-489.6373291015625	148.4451599121094	876.8235473632812	-529.4926147460938	134.1327056884766	1026.800903320312	-551.1958618164062	272.9615783691406	719.9286499023438	-472.9820556640625	191.4324951171875	791.9794311523438	-529.612548828125	176.2152099609375	1504.665405273438	-94.74985504150391	174.4271850585938	1429.586059570312	-22.71502304077148	187.7156677246094	1155.8505859375	-1.176752328872681	161.9979400634766	1128.856201171875	-93.98544311523438	355.6978454589844	934.6561889648438	-89.76125335693359	317.51806640625	902.2504272460938	-12.99207305908203	219.8242797851562	1082.69384765625	3.976003885269165	418.0927429199219	760.54052734375	-124.4977188110352	417.8686828613281	837.6203002929688	-94.91825866699219	379.2777709960938	816.6450805664062	-34.07618713378906	143.2926025390625	1692.849243164062	-188.7276153564453	314.4857482910156	1716.96533203125	-310.7688293457031	314.7489624023438	1716.10693359375	-211.8692321777344	133.6571502685547	1697.511840820312	-332.9570922851562	128.176513671875	943.29833984375	-442.8471984863281	147.6219482421875	940.8086547851562	-69.43355560302734	250.9450225830078	967.5377807617188	-142.66357421875	242.2967376708984	986.6072387695312	-377.8196716308594	326.9492492675781	542.6337890625	-416.1579284667969	245.4640045166016	656.4096069335938	-450.6613464355469	361.3395385742188	48.55982208251953	-439.3359069824219	315.9685363769531	293.4180908203125	-444.0884704589844	577.2957153320312	95.36614990234375	-384.5452270507812	481.1977844238281	78.30563354492188	-462.7366638183594	295.5033874511719	36.68428039550781	-383.4920349121094	132.3978118896484	502.0188903808594	-121.8184432983398	-87.18798828125	51.46782684326172	-173.0285797119141	85.55058288574219	379.6245422363281	-128.7085418701172	142.5393371582031	41.86540222167969	-213.3371734619141	79.58124542236328	47.71404647827148	-244.2466430664062	61.1372184753418	36.38869857788086	-147.0761413574219	-144.0772857666016	63.94627380371094	-216.9140472412109	256.3256225585938	810.3333129882812	-504.805908203125	160.830078125	772.2512817382812	-75.10662841796875	nan	nan	nan	nan	nan	nan	nan	nan	nan	
276	2.75	503.0220031738281	85.70841217041016	-360.82177734375	29.57785224914551	1050.735961914062	-168.8840484619141	24.73308753967285	1042.710815429688	-331.1997375488281	26.95630836486816	1113.95458984375	-255.9859619140625	268.4519348144531	1294.882080078125	-262.6729125976562	22.0814266204834	1259.168212890625	-248.4161682128906	77.92908477783203	1524.221313476562	-263.0802307128906	233.5784606933594	1423.4462890625	-266.8713073730469	27.54596519470215	1390.2412109375	-177.3911895751953	54.98105621337891	1482.758544921875	-359.8280639648438	154.8906402587891	1483.326416015625	-439.1555786132812	115.5442733764648	1360.243408203125	-514.0044555664062	108.9539031982422	1143.330200195312	-544.041259765625	57.095947265625	1129.003662109375	-452.7895812988281	222.9225616455078	902.9776000976562	-486.740478515625	147.6459045410156	878.8137817382812	-527.3486328125	131.0558929443359	1028.511962890625	-549.451904296875	274.2392578125	724.1321411132812	-469.2655334472656	192.0507354736328	794.6968994140625	-526.8764038085938	168.9480438232422	1506.14111328125	-93.12359619140625	166.6129608154297	1431.161499023438	-21.04852294921875	177.2709197998047	1157.538940429688	1.104387760162354	152.1637115478516	1130.579345703125	-91.79238128662109	342.1670227050781	933.041015625	-84.81928253173828	302.7793273925781	901.8742065429688	-8.168706893920898	208.2598266601562	1084.085205078125	6.851391315460205	401.603759765625	757.5589599609375	-117.8472747802734	402.5101318359375	834.7977294921875	-88.81398010253906	363.07080078125	815.0020751953125	-28.16389465332031	136.5754852294922	1694.341796875	-186.9495391845703	307.8098449707031	1718.212036132812	-308.9423217773438	308.0990905761719	1717.276245117188	-210.0634918212891	126.9909133911133	1699.158569335938	-331.1764831542969	120.8612823486328	945.214599609375	-441.3939208984375	141.0807647705078	941.5729370117188	-67.92346954345703	244.1865234375	968.6853637695312	-141.3971405029297	234.9745330810547	988.3312377929688	-376.4872436523438	320.6457214355469	543.9879150390625	-415.1716613769531	239.0201873779297	658.3427124023438	-449.5794372558594	344.5974426269531	48.49509048461914	-436.5250854492188	304.8727416992188	294.3421936035156	-442.3167724609375	560.9403686523438	92.0015869140625	-381.315185546875	464.9793090820312	75.94209289550781	-459.7074279785156	278.4565734863281	38.142822265625	-380.7615661621094	126.9719085693359	502.9700927734375	-121.8291091918945	-87.41825103759766	50.43463897705078	-173.4353332519531	81.21852111816406	380.4320678710938	-128.8265838623047	142.4708251953125	41.90070343017578	-213.3258361816406	79.48600006103516	47.56472015380859	-244.3834686279297	60.98709106445312	36.35783767700195	-147.1777954101562	-144.3410186767578	62.32174682617188	-217.4799041748047	256.4418334960938	814.2408447265625	-501.4890747070312	154.8338317871094	773.0638427734375	-74.18143463134766	nan	nan	nan	nan	nan	nan	nan	nan	nan	
